<svg xmlns="http://www.w3.org/2000/svg" version="1.1" viewBox="-5.0 -10.0 110.0 135.0">
 <path d="m28.871 12.77c12.93-7.3398 28.91-7.3906 41.891-0.19922-0.94141 7.1406 3.6289 8.7891 7.6992 10.238 1.9609 0.69922 3.9805 1.4219 5.4883 2.7109 0.19922 0.17188 0.46094 0.26172 0.71875 0.26172 0.17188 0 0.33984-0.039062 0.5-0.12109 0.39844-0.19922 0.62891-0.62891 0.58984-1.0703-0.48828-5.6289-2.1602-9.6016-4.9492-11.809-2.2109-1.7383-5.1094-2.3906-8.6289-1.9414-13.711-7.75-30.68-7.7617-44.391 0.019531-0.53125 0.30078-0.71094 0.96875-0.41016 1.5 0.30078 0.53125 0.97266 0.71094 1.4922 0.41016zm50.57 1.7422c1.9219 1.5195 3.2109 4.1797 3.8281 7.9219-1.3086-0.69922-2.7109-1.1992-4.0781-1.6914-4.0117-1.4297-6.9688-2.4805-6.2891-7.7812 2.7383-0.26953 4.8789 0.23828 6.5391 1.5508zm-66.871 14.727c0.64063 0.078125 1.25 0.14062 1.8086 0.14062 5.6406 0 7.1211-4.1406 8.4297-7.8398 0.69922-1.9609 1.4219-3.9805 2.7109-5.4883 0.28906-0.33984 0.35156-0.82031 0.14062-1.2188-0.19922-0.39844-0.62109-0.62109-1.0703-0.58984-5.6289 0.48828-9.6016 2.1602-11.809 4.9492-1.7383 2.2109-2.3906 5.1094-1.9414 8.6289-7.75 13.711-7.7617 30.68 0.019531 44.391 0.19922 0.35937 0.57031 0.55859 0.96094 0.55859 0.17969 0 0.37109-0.050781 0.53906-0.14062 0.53125-0.30078 0.71094-0.96875 0.41016-1.5-7.3398-12.938-7.3906-28.91-0.19922-41.891zm1.9414-8.6875c1.5195-1.9219 4.1797-3.2109 7.9219-3.8281-0.69922 1.3086-1.1992 2.7109-1.6914 4.0781-1.4297 4.0117-2.4805 6.9609-7.7812 6.2891-0.26953-2.7305 0.23828-4.8711 1.5508-6.5391zm56.617 66.68c-12.93 7.3398-28.91 7.3906-41.891 0.19922 0.94141-7.1406-3.6289-8.7891-7.6992-10.238-1.9609-0.69922-3.9805-1.4219-5.4883-2.7109-0.33984-0.28906-0.82031-0.35156-1.2188-0.14062-0.39844 0.19922-0.62891 0.62891-0.58984 1.0703 0.48828 5.6289 2.1602 9.6016 4.9492 11.809 1.7617 1.3906 3.9609 2.0898 6.5586 2.0898 0.66016 0 1.3594-0.058594 2.0703-0.14844 6.8516 3.8789 14.512 5.8203 22.18 5.8203 7.6719 0 15.352-1.9414 22.211-5.8398 0.53125-0.30078 0.71094-0.96875 0.41016-1.5-0.30078-0.53125-0.96094-0.71094-1.4922-0.41016zm-50.57-1.7422c-1.9219-1.5195-3.2109-4.1797-3.8281-7.9219 1.3086 0.69922 2.7109 1.1992 4.0781 1.6914 4.0117 1.4297 6.9688 2.4805 6.2891 7.7812-2.7383 0.26953-4.8789-0.23828-6.5391-1.5508zm68.582-57.699c-0.30078-0.53125-0.96875-0.71094-1.5-0.41016-0.53125 0.30078-0.71094 0.96875-0.41016 1.5 7.3398 12.93 7.3906 28.91 0.19922 41.891-7.1289-0.94141-8.7891 3.6289-10.238 7.6992-0.69922 1.9609-1.4219 3.9805-2.7109 5.4883-0.28906 0.33984-0.35156 0.82031-0.14062 1.2188 0.19141 0.37109 0.57031 0.60156 0.98047 0.60156h0.10156c5.6289-0.48828 9.6016-2.1602 11.809-4.9492 1.7383-2.2109 2.3906-5.1094 1.9414-8.6289 7.7383-13.73 7.75-30.699-0.03125-44.41zm-3.6523 51.652c-1.5195 1.9219-4.1797 3.2109-7.9297 3.8281 0.69922-1.3086 1.1992-2.7109 1.6914-4.0781 1.2891-3.6289 2.2695-6.3906 6.3711-6.3906 0.44141 0 0.91016 0.03125 1.4219 0.10156 0.26562 2.7383-0.24219 4.8789-1.5547 6.5391zm-35.488-62.082c-18 0-32.641 14.641-32.641 32.641s14.641 32.641 32.641 32.641 32.641-14.641 32.641-32.641-14.641-32.641-32.641-32.641zm-14.672 32.641c0-3.5117 0.30859-6.8984 0.85938-10.07 4.2812 1.4492 8.9805 2.2383 13.809 2.2383s9.5391-0.78906 13.809-2.2383c0.55078 3.1719 0.85937 6.5586 0.85937 10.07s-0.30859 6.8984-0.85937 10.07c-4.2812-1.4492-8.9805-2.2383-13.809-2.2383s-9.5391 0.78906-13.809 2.2383c-0.55859-3.1719-0.85938-6.5586-0.85938-10.07zm30.613-10.859c3.6211-1.4688 6.8594-3.4414 9.5117-5.8203 3.1484 4.8008 5 10.531 5 16.68 0 6.1602-1.8398 11.891-5 16.68-2.6484-2.3906-5.8906-4.3516-9.5117-5.8203 0.60156-3.3789 0.92969-7.0312 0.92969-10.859s-0.33203-7.4805-0.92969-10.859zm8.2305-7.6289c-2.3984 2.2109-5.3398 4.0586-8.6484 5.4492-1.6094-7.3086-4.5391-13.18-8.25-16.52 6.8164 1.668 12.746 5.6602 16.898 11.07zm-10.781 6.25c-4.1211 1.4375-8.6914 2.2188-13.391 2.2188s-9.2695-0.78125-13.391-2.2188c2.332-10.613 7.5195-18.211 13.391-18.211s11.059 7.5977 13.391 18.211zm-20.66-17.32c-3.7109 3.3516-6.6406 9.2109-8.25 16.52-3.3086-1.3906-6.2617-3.2305-8.6484-5.4492 4.1484-5.4102 10.078-9.4023 16.898-11.07zm-18.18 12.879c2.6484 2.3906 5.8906 4.3516 9.5117 5.8203-0.60156 3.3789-0.92969 7.0312-0.92969 10.859s0.32813 7.4688 0.92969 10.859c-3.6211 1.4688-6.8594 3.4414-9.5117 5.8203-3.1484-4.8008-5-10.531-5-16.68 0-6.1602 1.8477-11.891 5-16.68zm1.2773 35.168c2.3984-2.2109 5.3398-4.0586 8.6484-5.4492 1.6094 7.3086 4.5391 13.18 8.25 16.52-6.8164-1.6797-12.746-5.6602-16.898-11.07zm10.781-6.2578c4.1211-1.4297 8.6914-2.2188 13.391-2.2188s9.2695 0.78125 13.391 2.2188c-2.332 10.621-7.5195 18.219-13.391 18.219s-11.059-7.5977-13.391-18.219zm20.66 17.328c3.7109-3.3516 6.6406-9.2109 8.25-16.52 3.3086 1.3906 6.2617 3.2305 8.6484 5.4492-4.1484 5.4102-10.078 9.3906-16.898 11.07z"/>
<text x="0.0" y="117.5" font-size="5.0" font-weight="bold" font-family="Arbeit Regular, Helvetica, Arial-Unicode, Arial, Sans-serif" fill="#000000">Created by Ponisih</text><text x="0.0" y="122.5" font-size="5.0" font-weight="bold" font-family="Arbeit Regular, Helvetica, Arial-Unicode, Arial, Sans-serif" fill="#000000">from Noun Project</text></svg>