<svg xmlns="http://www.w3.org/2000/svg" version="1.1" viewBox="-5.0 -10.0 110.0 135.0">
 <path d="m9.8008 66.098 1.8398-1.7773c1.9102-1.8438 4.9648-1.7734 6.8164 0.12109 0.26172 0.26953 0.52734 0.53906 0.78906 0.80469l11.812-11.941c1.7578-1.7773 4.0078-2.5391 6.4883-2.4375 2.4844 0.10156 4.7305 0.22656 6.8359 0.34375 5.3281 0.29687 9.7461 0.54297 13.68 0.18359l0.042969-0.003906c3.0742-0.12891 5.7461 1.2695 6.1602 3.9727 0.10938 0.69922 0.039063 1.4414-0.21484 2.1719 4.1875-2.6172 9.375-6.6055 12.441-9.4141 2.5156-2.3594 4.332-4.2734 5.7227-5.7344 3.9453-4.1523 4.8555-5.1094 8.043-2.7461l0.023438 0.015625 0.054688 0.050781c7.9102 6.5039-21.84 30.512-21.926 30.578-0.019531 0.015625-0.039062 0.027344-0.058594 0.042969-3.8047 2.6055-10.027 3.5-19.828 4.9023-3.1367 0.44922-6.6406 0.94922-10.418 1.5547-0.81641 0.12891-1.5781 0.32812-2.1406 0.94141l-2.1641 2.3945c0.32031 0.33594 0.63672 0.67188 0.95703 1.0078 1.8398 1.9258 1.75 4.957-0.11719 6.7773-0.61719 0.60156-1.2422 1.1992-1.8633 1.7969-1.9102 1.8438-4.9648 1.7734-6.8164-0.12109-5.4102-5.5391-11.004-11.066-16.309-16.691-1.8359-1.9219-1.75-4.9492 0.14844-6.793zm46.645-19.23c-1.25-2.6133-2.6992-5.2227-4.3242-7.7695 1.2617-2.3477 2.668-4.4766 4.1602-6.3984 1.457 0.88672 4.3867 2.25 5.9648 2.7617 9.7695 3.0703 13.375-3.3906 17.094-10.055 2.4453-4.3828 4.9453-8.8633 9.3594-10.297 0.78125-0.25391 0.77734-1.3594 0.003906-1.6172-2.9102-0.96484-5.8242-1.5898-8.6484-1.8906-5.6172-0.60156-10.871 0.082032-15.066 1.9102-4.2773 1.8672-7.457 4.9219-8.8164 9.0273-0.30469 0.92578-0.51953 1.9062-0.62891 2.9453l-0.11719 3.3867c-0.019531 0.83203-0.03125 1.6367-0.035156 2.2148-1.543 1.9258-3 4.0586-4.3203 6.4062-0.50391-0.74609-1.0234-1.4844-1.5586-2.2148l0.019531-0.27734c0.10547-1.4688 0.46875-6.5 0.4375-7.4531-0.22266-6.7852-4.5508-12.215-10.773-15.379-4.3789-2.2266-9.793-3.4023-15.645-3.1953-4.6172 0.16406-9.5039 1.1797-14.359 3.2148-0.74609 0.30469-0.69141 1.3633 0.0625 1.6016 13.695 4.2734 11.684 29.883 31.848 25.098v-0.003907c2.3008-0.60156 5.5547-1.4375 7.3086-2.2344 2.543 3.5234 4.7344 7.2344 6.5078 10.949 0.20312 0.42188 0.70703 0.60156 1.1328 0.39844 0.41797-0.19922 0.59766-0.70703 0.39453-1.1289zm-9.0703-11.613c-5.668-7.4727-13.051-14.145-21.496-17.863-0.42969-0.1875-0.625-0.69141-0.4375-1.1211 0.1875-0.42969 0.69141-0.625 1.1211-0.43359 8.3359 3.668 15.66 10.098 21.387 17.387 0.14062-2.0078 0.30859-4.6172 0.32031-5.625-0.0625-1.7969-0.44922-3.5-1.1133-5.082-1.5547-3.7109-4.6562-6.7539-8.7344-8.832-4.1328-2.1055-9.2656-3.2109-14.816-3.0156-3.793 0.13281-7.7812 0.875-11.789 2.3203 4.9844 2.4688 7.7734 7.5391 10.52 12.523 3.9648 7.2031 7.8242 14.219 18.379 11.715v0.003907c2.1055-0.55078 5.0273-1.3008 6.6602-1.9766zm26.496-18.035c-5.7031 2.2461-11.754 6.2656-16.754 11.828l0.11719-3.4062c0.097656-0.89844 0.28516-1.7578 0.55469-2.5742 1.1992-3.6172 4.0391-6.3281 7.8789-8.0039 5.918-2.582 13.543-2.4648 20.344-0.61328-3.6992 2.1367-5.9453 6.168-8.1562 10.125-3.375 6.0469-6.6445 11.91-15.102 9.2578-1.4492-0.47266-4.0352-1.6758-5.4023-2.4727 4.9023-5.8438 11.141-10.207 17.133-12.562 0.4375-0.17188 0.65234-0.66406 0.48047-1.1016-0.16406-0.42969-0.65625-0.64453-1.0938-0.47656zm-53.434 49.246c4.0625 4.1289 8.1914 8.2578 12.195 12.43l2.0859-2.3164c0.85547-0.93359 1.918-1.2734 3.125-1.4688 3.9453-0.63281 7.375-1.1211 10.441-1.5625 9.543-1.3672 15.609-2.2344 19.09-4.6094 1.1055-0.89453 28.164-22.941 21.844-27.949-1.9648-1.4414-2.6836-0.68359-5.7773 2.5703-1.4141 1.4883-3.2578 3.4258-5.8125 5.8242-3.4648 3.25-12.656 10.234-17.199 12.008-6.4219 2.5078-10.258 2.2227-17.512 1.8398-1.1172-0.058594-1.0273-1.7539 0.085937-1.6953 6.2578 0.33203 10.453 0.64453 15.82-1.3555 2.2148-0.82813 4.0508-2.6094 3.75-4.5547-0.074219-0.48828-0.29297-0.94922-0.65234-1.3359-0.71484-0.77344-1.9766-1.2695-3.75-1.1953-4.0625 0.36719-8.5234 0.11719-13.895-0.17969-2.1367-0.12109-4.4219-0.24609-6.8086-0.34375-2.0195-0.082031-3.7812 0.49219-5.2109 1.9375zm-7.6211-0.91797-1.8555 1.7891c-1.2148 1.1797-1.2578 3.1719-0.078126 4.3867l16.301 16.684c1.1992 1.2305 3.1836 1.2734 4.4219 0.078125l1.8555-1.7891c1.2148-1.1797 1.2578-3.168 0.078124-4.3828l-16.301-16.684c-1.2031-1.2305-3.1836-1.2773-4.4219-0.082031z" fill-rule="evenodd"/>
<text x="0.0" y="117.5" font-size="5.0" font-weight="bold" font-family="Arbeit Regular, Helvetica, Arial-Unicode, Arial, Sans-serif" fill="#000000">Created by Lulis Dian RP</text><text x="0.0" y="122.5" font-size="5.0" font-weight="bold" font-family="Arbeit Regular, Helvetica, Arial-Unicode, Arial, Sans-serif" fill="#000000">from Noun Project</text></svg>