<svg xmlns="http://www.w3.org/2000/svg" version="1.1" viewBox="-5.0 -10.0 110.0 135.0">
 <path d="m87.43 65.32c1.9883-4.8594 3-10.012 3-15.32s-1.0117-10.461-3-15.32c2.25-1.6211 2.9492-4.7305 1.5391-7.1797-0.73047-1.2695-1.9102-2.1719-3.3281-2.5508-1.2383-0.32812-2.5195-0.21875-3.6719 0.30078-6.4883-8.3711-16.07-13.898-26.52-15.309-0.26953-2.7695-2.6094-4.9414-5.4492-4.9414s-5.1797 2.1719-5.4492 4.9297c-10.441 1.4102-20.031 6.9492-26.52 15.309-2.5312-1.1406-5.5781-0.19922-7 2.2617-0.73047 1.2695-0.92969 2.75-0.55078 4.1602 0.32812 1.2305 1.0586 2.2891 2.0898 3.0312-1.9883 4.8594-3 10.012-3 15.32 0 5.3086 1.0117 10.461 3 15.32-2.25 1.6211-2.9492 4.7305-1.5391 7.1797 0.73047 1.2695 1.9102 2.1719 3.3281 2.5508 0.46875 0.12891 0.94922 0.19141 1.4297 0.19141 0.76953 0 1.5312-0.17188 2.2383-0.48828 6.4883 8.3711 16.078 13.898 26.52 15.32 0.27344 2.7422 2.6133 4.9141 5.4531 4.9141s5.1797-2.1719 5.4492-4.9297c10.441-1.4102 20.031-6.9492 26.52-15.32 0.71094 0.32031 1.4688 0.48828 2.2383 0.48828 0.48047 0 0.96094-0.058593 1.4297-0.19141 1.4102-0.37891 2.6016-1.2891 3.3281-2.5508 0.73047-1.2695 0.92969-2.75 0.55078-4.1602-0.32422-1.2266-1.0547-2.2852-2.0859-3.0156zm-2.2578-38.602c0.94141 0.25 1.7305 0.85938 2.2109 1.6992 1 1.7383 0.41016 3.9688-1.3281 4.9805-1.7383 1-3.9688 0.41016-4.9805-1.3281-0.48828-0.83984-0.62109-1.8281-0.35938-2.7695 0.25-0.94141 0.85156-1.7305 1.6992-2.2109 0.55859-0.32031 1.1797-0.48828 1.8203-0.48828 0.29688-0.011718 0.61719 0.039063 0.9375 0.11719zm-35.172-19.879c2.0117 0 3.6406 1.6289 3.6406 3.6406s-1.6289 3.6406-3.6406 3.6406-3.6406-1.6289-3.6406-3.6406 1.6289-3.6406 3.6406-3.6406zm-37.379 21.582c0.67188-1.1719 1.8984-1.8203 3.1602-1.8203 0.62109 0 1.2383 0.16016 1.8203 0.48828 1.7383 1 2.3398 3.2383 1.3281 4.9805-1 1.7383-3.2383 2.3398-4.9805 1.3281-0.83984-0.48828-1.4492-1.2695-1.6992-2.2109-0.25-0.94922-0.12109-1.9258 0.37109-2.7656zm2.207 44.859c-0.94141-0.25-1.7305-0.85938-2.2109-1.6992-1-1.7383-0.41016-3.9688 1.3281-4.9805 0.57031-0.32812 1.1992-0.48828 1.8203-0.48828 1.2617 0 2.4883 0.64844 3.1602 1.8203 0.48828 0.83984 0.62109 1.8281 0.35938 2.7695-0.25 0.94141-0.85156 1.7305-1.6992 2.2109-0.82422 0.48438-1.8164 0.61719-2.7578 0.36719zm35.172 19.879c-2.0117 0-3.6406-1.6289-3.6406-3.6406s1.6289-3.6406 3.6406-3.6406 3.6406 1.6289 3.6406 3.6406-1.6289 3.6406-3.6406 3.6406zm5.3281-4.9297c-0.57812-2.3984-2.75-4.1992-5.3281-4.1992s-4.75 1.7891-5.3281 4.1992c-9.8789-1.3711-18.949-6.6016-25.121-14.5 0.73047-0.69141 1.25-1.5586 1.5117-2.5508 0.37891-1.4102 0.17969-2.8906-0.55078-4.1602-1.2891-2.2383-3.9297-3.2188-6.3008-2.5117-1.8594-4.6094-2.8125-9.4766-2.8125-14.508s0.94922-9.8984 2.8203-14.512c0.51172 0.14844 1.0312 0.23047 1.5508 0.23047 1.8984 0 3.7383-0.98047 4.7617-2.7383 1.2891-2.2305 0.82031-5.0117-0.96875-6.7109 6.1719-7.8984 15.238-13.141 25.121-14.512 0.57812 2.3984 2.75 4.1992 5.3281 4.1992s4.75-1.7891 5.3281-4.1992c9.8789 1.3711 18.949 6.6016 25.121 14.5-0.73047 0.69141-1.25 1.5586-1.5117 2.5508-0.37891 1.4102-0.17969 2.8906 0.55078 4.1602 1.0117 1.7617 2.8594 2.7383 4.7617 2.7383 0.51953 0 1.0391-0.078125 1.5508-0.23047 1.8359 4.625 2.7891 9.4922 2.7891 14.523 0 5.0195-0.94922 9.8984-2.8203 14.5-0.96094-0.28906-1.9805-0.30078-2.9805-0.039062-1.4102 0.37891-2.6016 1.2891-3.3281 2.5508-1.2891 2.2305-0.82031 5.0117 0.96875 6.7109-6.1602 7.9062-15.23 13.148-25.113 14.508zm32.051-16.652c-1 1.7383-3.2383 2.3398-4.9805 1.3281-1.7383-1-2.3398-3.2383-1.3281-4.9805 0.48828-0.83984 1.2695-1.4492 2.2109-1.6992 0.30859-0.078124 0.62891-0.12891 0.94922-0.12891 0.62891 0 1.25 0.17188 1.8203 0.48828 0.83984 0.48828 1.4492 1.2695 1.6992 2.2109 0.25 0.96484 0.12109 1.9414-0.37109 2.7812zm-56.18-26.438c3.3789 0 6.1289-2.75 6.1289-6.1289 0-3.3789-2.75-6.1289-6.1289-6.1289-3.3789 0-6.1289 2.75-6.1289 6.1289 0 3.3789 2.75 6.1289 6.1289 6.1289zm0-10.422c2.3711 0 4.2891 1.9297 4.2891 4.2891 0 2.3711-1.9297 4.2891-4.2891 4.2891s-4.2891-1.9297-4.2891-4.2891c0-2.3672 1.9297-4.2891 4.2891-4.2891zm49.371 22.051c-0.44922-6.7617-5.1797-11.309-11.781-11.309-3.8398 0-7.1719 1.5898-9.3086 4.3984-2.5391-1.9688-5.7891-3.0703-9.4883-3.0703-3.6992 0-6.9492 1.1094-9.4883 3.0703-2.1406-2.8086-5.4688-4.3984-9.3086-4.3984-6.6016 0-11.328 4.5391-11.781 11.309-0.058593 0.92969 0.28906 1.7812 0.98828 2.3906 2.6758 2.3281 6.918 3.8398 10.797 3.8398 1.1797 0 2.4297-0.14844 3.6602-0.42188 0.17969 0.67188 0.55078 1.2812 1.1016 1.7617 3.4688 3.0312 8.9688 5 14.031 5 5.0586 0 10.57-1.9609 14.031-5 0.55078-0.48047 0.92969-1.0898 1.1016-1.7617 1.2461 0.28125 2.4961 0.42188 3.6758 0.42188 3.8906 0 8.1211-1.5117 10.781-3.8398 0.69922-0.60938 1.0469-1.4609 0.98828-2.3906zm-45.75 3.9414c-1.2188 0.30078-2.4609 0.46094-3.6211 0.46094-3.4102 0-7.2617-1.3594-9.5703-3.3906-0.26953-0.23828-0.39062-0.53125-0.37109-0.89062 0.37891-5.7383 4.3789-9.5898 9.9414-9.5898 3.3516 0 6.1406 1.3398 7.9297 3.7891-2.3672 2.3984-3.8984 5.6992-4.3086 9.6211zm28 2.25c-3.1016 2.7188-8.2617 4.5391-12.82 4.5391s-9.7188-1.8203-12.82-4.5391c-0.42969-0.37109-0.62109-0.85156-0.58984-1.4102 0.51172-7.7305 5.8984-12.922 13.41-12.922s12.898 5.1914 13.41 12.922c0.03125 0.55859-0.16016 1.0391-0.58984 1.4102zm15.551-5.1797c-2.3086 2.0312-6.1602 3.3906-9.5703 3.3906-1.1602 0-2.3984-0.16016-3.6211-0.46094-0.39844-3.9219-1.9414-7.2188-4.3086-9.6211 1.7891-2.4492 4.5781-3.7891 7.9297-3.7891 5.5703 0 9.5586 3.8516 9.9414 9.5898 0.019531 0.35938-0.10156 0.64844-0.37109 0.89062zm-9.5703-12.641c3.3789 0 6.1289-2.75 6.1289-6.1289 0-3.3789-2.75-6.1289-6.1289-6.1289-3.3789 0-6.1289 2.75-6.1289 6.1289 0 3.3789 2.75 6.1289 6.1289 6.1289zm0-10.422c2.3711 0 4.2891 1.9297 4.2891 4.2891 0 2.3711-1.9297 4.2891-4.2891 4.2891s-4.2891-1.9297-4.2891-4.2891c-0.011719-2.3672 1.918-4.2891 4.2891-4.2891zm-18.801 11.531c4.3008 0 7.7891-3.5 7.7891-7.7891 0-4.2891-3.5-7.7891-7.7891-7.7891s-7.7891 3.5-7.7891 7.7891c0 4.2891 3.4883 7.7891 7.7891 7.7891zm0-13.75c3.2812 0 5.9609 2.6719 5.9609 5.9609 0 3.2812-2.6719 5.9609-5.9609 5.9609s-5.9609-2.6719-5.9609-5.9609c0-3.2891 2.6797-5.9609 5.9609-5.9609z"/>
<text x="0.0" y="117.5" font-size="5.0" font-weight="bold" font-family="Arbeit Regular, Helvetica, Arial-Unicode, Arial, Sans-serif" fill="#000000">Created by Hanbai</text><text x="0.0" y="122.5" font-size="5.0" font-weight="bold" font-family="Arbeit Regular, Helvetica, Arial-Unicode, Arial, Sans-serif" fill="#000000">from Noun Project</text></svg>